<?xml version="1.0" encoding="UTF-8" standalone="no"?>
<svg
   xmlns:dc="http://purl.org/dc/elements/1.1/"
   xmlns:cc="http://creativecommons.org/ns#"
   xmlns:rdf="http://www.w3.org/1999/02/22-rdf-syntax-ns#"
   xmlns:svg="http://www.w3.org/2000/svg"
   xmlns="http://www.w3.org/2000/svg"
   xmlns:sodipodi="http://sodipodi.sourceforge.net/DTD/sodipodi-0.dtd"
   xmlns:inkscape="http://www.inkscape.org/namespaces/inkscape"
   width="512"
   height="192"
   viewBox="0 0 135.46666 50.8"
   version="1.1"
   id="svg8"
   inkscape:version="1.0.1 (3bc2e81, 2020-09-07)"
   sodipodi:docname="attox.svg">
  <defs
     id="defs2" />
  <sodipodi:namedview
     id="base"
     pagecolor="#ffffff"
     bordercolor="#666666"
     borderopacity="1.0"
     inkscape:pageopacity="0.0"
     inkscape:pageshadow="2"
     inkscape:zoom="1.4"
     inkscape:cx="205.0707"
     inkscape:cy="-0.87332279"
     inkscape:document-units="px"
     inkscape:current-layer="layer1"
     inkscape:document-rotation="0"
     showgrid="false"
     units="px"
     inkscape:object-paths="false"
     inkscape:window-width="1920"
     inkscape:window-height="1026"
     inkscape:window-x="0"
     inkscape:window-y="32"
     inkscape:window-maximized="1" />
  <metadata
     id="metadata5">
    <rdf:RDF>
      <cc:Work
         rdf:about="">
        <dc:format>image/svg+xml</dc:format>
        <dc:type
           rdf:resource="http://purl.org/dc/dcmitype/StillImage" />
        <dc:title></dc:title>
      </cc:Work>
    </rdf:RDF>
  </metadata>
  <g
     inkscape:label="Layer 1"
     inkscape:groupmode="layer"
     id="layer1">
    <g
       id="g2443"
       transform="matrix(1.1992331,0,0,1.1992331,-8.2238077,5.1031415)">
      <path
         d="m 19.68512,10.230562 c 1.763887,0 3.457219,0.45861 4.868329,1.481665 1.375833,1.023055 2.36361,2.610554 2.36361,4.515552 v 3.845275 4.55083 l 1.799165,2.716387 c 0.141111,0.211667 0.282222,0.529166 0.282222,0.776111 0,0.811388 -0.635,1.446387 -1.446388,1.446387 -0.423333,0 -0.952499,-0.246944 -1.199443,-0.634999 l -1.093611,-1.658055 c -1.41111,1.164166 -3.245553,2.187221 -5.96194,2.187221 -1.834443,0 -3.739441,-0.388055 -5.291662,-1.375832 -1.587499,-0.9525 -2.786943,-2.751665 -2.786943,-5.044719 0,-2.257776 1.340555,-4.092219 2.963331,-4.974163 1.587499,-0.881943 3.45722,-1.164165 5.115274,-1.164165 1.975554,0 3.421942,0.352777 4.727219,0.846666 v -1.516944 c 0,-0.952499 -0.388055,-1.658054 -1.164166,-2.18722 -0.811388,-0.564444 -1.975554,-0.9525 -3.174997,-0.9525 -2.68111,0 -4.233331,0.917222 -4.233331,0.917222 -0.176388,0.105833 -0.529166,0.211667 -0.740832,0.211667 -0.811389,0 -1.446388,-0.635 -1.446388,-1.446388 0,-0.458611 0.3175,-1.058333 0.740833,-1.269999 0,0 2.328331,-1.269999 5.679718,-1.269999 z m -0.388056,9.524992 c -1.305277,0 -2.751664,0.246945 -3.739441,0.811389 -0.9525,0.529166 -1.481666,1.128888 -1.481666,2.469442 0,1.41111 0.529166,2.04611 1.446388,2.645832 0.917221,0.599721 2.328331,0.881943 3.774719,0.881943 2.539998,0 3.598331,-0.846666 4.727219,-2.046109 V 20.91972 c -1.340555,-0.740833 -2.398887,-1.164166 -4.727219,-1.164166 z"
         style="font-style:normal;font-variant:normal;font-weight:normal;font-stretch:normal;font-size:42.3333px;line-height:1.25;font-family:'Brass Mono Comfortable';-inkscape-font-specification:'Brass Mono Comfortable';letter-spacing:0px;word-spacing:0px;fill:#1c5abd;fill-opacity:1;stroke:none;stroke-width:1.05834"
         id="path2420" />
      <path
         d="m 42.580338,3.7041776 h 0.07056 c 0.776111,0 1.41111,0.6349996 1.41111,1.4463878 v 0.035278 5.7149956 h 7.161384 0.03528 c 0.811388,0 1.446388,0.634999 1.446388,1.446388 0,0.811388 -0.635,1.446387 -1.446388,1.446387 h -0.03528 -7.161384 v 10.089437 c 0,1.164166 0.211667,1.975554 0.705555,2.469443 0.458611,0.493888 1.375833,0.917221 3.386665,0.917221 h 1.622776 c 0.811388,0 1.446388,0.635 1.446388,1.446388 0,0.811389 -0.635,1.446388 -1.446388,1.446388 h -1.622776 c -2.469443,0 -4.339164,-0.599722 -5.50333,-1.869721 -1.199443,-1.269999 -1.446387,-2.857498 -1.446387,-4.409719 V 13.793614 h -4.268608 c -0.811389,0 -1.446388,-0.634999 -1.446388,-1.446387 0,-0.811389 0.634999,-1.446388 1.446388,-1.446388 h 4.268608 V 5.1858432 5.1505654 c 0,-0.7761105 0.634999,-1.4463878 1.375832,-1.4463878 z"
         style="font-style:normal;font-variant:normal;font-weight:normal;font-stretch:normal;font-size:42.3333px;line-height:1.25;font-family:'Brass Mono Comfortable';-inkscape-font-specification:'Brass Mono Comfortable';letter-spacing:0px;word-spacing:0px;fill:#1c5abd;fill-opacity:1;stroke:none;stroke-width:1.05834"
         id="path2422" />
      <path
         d="m 66.569167,3.7041776 h 0.07056 c 0.776111,0 1.41111,0.6349996 1.41111,1.4463878 v 0.035278 5.7149956 h 7.161384 0.03528 c 0.811389,0 1.446388,0.634999 1.446388,1.446388 0,0.811388 -0.634999,1.446387 -1.446388,1.446387 h -0.03528 -7.161384 v 10.089437 c 0,1.164166 0.211667,1.975554 0.705555,2.469443 0.458611,0.493888 1.375832,0.917221 3.386664,0.917221 h 1.622777 c 0.811388,0 1.446388,0.635 1.446388,1.446388 0,0.811389 -0.635,1.446388 -1.446388,1.446388 h -1.622777 c -2.469442,0 -4.339163,-0.599722 -5.503329,-1.869721 -1.199443,-1.269999 -1.446388,-2.857498 -1.446388,-4.409719 V 13.793614 h -4.268608 c -0.811388,0 -1.446387,-0.634999 -1.446387,-1.446387 0,-0.811389 0.634999,-1.446388 1.446387,-1.446388 h 4.268608 V 5.1858432 5.1505654 c 0,-0.7761105 0.635,-1.4463878 1.375833,-1.4463878 z"
         style="font-style:normal;font-variant:normal;font-weight:normal;font-stretch:normal;font-size:42.3333px;line-height:1.25;font-family:'Brass Mono Comfortable';-inkscape-font-specification:'Brass Mono Comfortable';letter-spacing:0px;word-spacing:0px;fill:#1c5abd;fill-opacity:1;stroke:none;stroke-width:1.05834"
         id="path2424" />
      <path
         d="m 92.039659,10.336395 c 2.010832,0 4.127497,0.493888 5.679718,2.081387 1.587499,1.552221 2.469443,4.056942 2.469443,7.514161 0,3.492498 -0.881944,5.997218 -2.469443,7.549439 -1.552221,1.552221 -3.668886,2.081387 -5.679718,2.081387 -1.975554,0 -4.056942,-0.45861 -5.609163,-2.046109 -1.587498,-1.552221 -2.469442,-4.056942 -2.469442,-7.584717 0,-3.492497 0.846666,-5.96194 2.434165,-7.514161 1.552221,-1.587499 3.668886,-2.081387 5.64444,-2.081387 z m 0,2.892775 c -1.516943,0 -2.681109,0.3175 -3.598331,1.199444 -0.881944,0.917222 -1.587499,2.469443 -1.587499,5.503329 0,3.069165 0.705555,4.656663 1.587499,5.573885 0.917222,0.881944 2.081388,1.164166 3.598331,1.164166 1.552221,0 2.751664,-0.3175 3.668886,-1.234722 0.881944,-0.881943 1.587499,-2.469442 1.587499,-5.503329 0,-2.998609 -0.705555,-4.586107 -1.587499,-5.503329 C 94.791323,13.54667 93.59188,13.22917 92.039659,13.22917 Z"
         style="font-style:normal;font-variant:normal;font-weight:normal;font-stretch:normal;font-size:42.3333px;line-height:1.25;font-family:'Brass Mono Comfortable';-inkscape-font-specification:'Brass Mono Comfortable';letter-spacing:0px;word-spacing:0px;fill:#1c5abd;fill-opacity:1;stroke:none;stroke-width:1.05834"
         id="path2426" />
      <path
         d="m 105.82918,3.6872383 c 0.22762,0 0.56906,0.136575 0.72839,0.341438 l 3.59649,4.393169 3.642,-4.393169 c 0.15934,-0.204863 0.50078,-0.341438 0.7284,-0.341438 0.52354,0 0.93327,0.409725 0.93327,0.933263 0,0.182101 -0.11382,0.455251 -0.20486,0.591827 l -3.8924,4.6890821 3.8924,4.6435566 c 0.091,0.136575 0.20486,0.409726 0.20486,0.591826 0,0.523538 -0.40973,0.933263 -0.93327,0.933263 -0.22762,0 -0.56906,-0.136574 -0.7284,-0.341437 l -3.642,-4.39317 -3.59649,4.39317 c -0.15933,0.204863 -0.50077,0.341437 -0.72839,0.341437 -0.52354,0 -0.93327,-0.409725 -0.93327,-0.933263 0,-0.1821 0.11381,-0.455251 0.20486,-0.591826 l 3.86964,-4.6435566 -3.86964,-4.6890821 c -0.0911,-0.136576 -0.20486,-0.409726 -0.20486,-0.591827 0,-0.523538 0.40973,-0.933263 0.93327,-0.933263 z"
         style="font-style:normal;font-variant:normal;font-weight:normal;font-stretch:normal;font-size:42.3333px;line-height:1.25;font-family:'Brass Mono Comfortable';-inkscape-font-specification:'Brass Mono Comfortable';letter-spacing:0px;word-spacing:0px;fill:#3eb54a;fill-opacity:1;stroke:none;stroke-width:0.682881"
         id="path2428" />
    </g>
  </g>
</svg>
